<?xml version="1.0" encoding="UTF-8"?>
<svg version="1.1" xmlns="http://www.w3.org/2000/svg" width="48" height="48">
<path d="M0 0 C15.84 0 31.68 0 48 0 C48 15.84 48 31.68 48 48 C32.16 48 16.32 48 0 48 C0 32.16 0 16.32 0 0 Z " fill="#9AAEC8" transform="translate(0,0)"/>
<path d="M0 0 C15.84 0 31.68 0 48 0 C48 15.84 48 31.68 48 48 C32.16 48 16.32 48 0 48 C0 32.16 0 16.32 0 0 Z M2 3 C1.8988308 6.09081465 1.86031442 9.15882555 1.8671875 12.25 C1.86623077 13.17844727 1.86527405 14.10689453 1.86428833 15.06347656 C1.86360645 17.03059965 1.86546128 18.99772496 1.86962891 20.96484375 C1.87497705 23.98703026 1.86968418 27.00906815 1.86328125 30.03125 C1.86394203 31.93750033 1.86522319 33.84375057 1.8671875 35.75 C1.86516327 36.66040039 1.86313904 37.57080078 1.86105347 38.50878906 C1.46108668 42.57663678 1.46108668 42.57663678 3 46 C6.09081465 46.1011692 9.15882555 46.13968558 12.25 46.1328125 C13.17844727 46.13376923 14.10689453 46.13472595 15.06347656 46.13571167 C17.03059965 46.13639355 18.99772496 46.13453872 20.96484375 46.13037109 C23.98703026 46.12502295 27.00906815 46.13031582 30.03125 46.13671875 C31.93750033 46.13605797 33.84375057 46.13477681 35.75 46.1328125 C37.11560059 46.13584885 37.11560059 46.13584885 38.50878906 46.13894653 C42.57663678 46.53891332 42.57663678 46.53891332 46 45 C46.1011692 41.90918535 46.13968558 38.84117445 46.1328125 35.75 C46.13376923 34.82155273 46.13472595 33.89310547 46.13571167 32.93652344 C46.13639355 30.96940035 46.13453872 29.00227504 46.13037109 27.03515625 C46.12502295 24.01296974 46.13031582 20.99093185 46.13671875 17.96875 C46.13605797 16.06249967 46.13477681 14.15624943 46.1328125 12.25 C46.13483673 11.33959961 46.13686096 10.42919922 46.13894653 9.49121094 C46.53891332 5.42336322 46.53891332 5.42336322 45 2 C41.90918535 1.8988308 38.84117445 1.86031442 35.75 1.8671875 C34.82155273 1.86623077 33.89310547 1.86527405 32.93652344 1.86428833 C30.96940035 1.86360645 29.00227504 1.86546128 27.03515625 1.86962891 C24.01296974 1.87497705 20.99093185 1.86968418 17.96875 1.86328125 C16.06249967 1.86394203 14.15624943 1.86522319 12.25 1.8671875 C11.33959961 1.86516327 10.42919922 1.86313904 9.49121094 1.86105347 C5.42336322 1.46108668 5.42336322 1.46108668 2 3 Z " fill="#1E2021" transform="translate(0,0)"/>
<path d="M0 0 C1.98 0 3.96 0 6 0 C6 3.3 6 6.6 6 10 C9.63 10 13.26 10 17 10 C17 11.98 17 13.96 17 16 C13.37 16 9.74 16 6 16 C6 19.63 6 23.26 6 27 C4.02 27 2.04 27 0 27 C0 23.37 0 19.74 0 16 C-3.63 16 -7.26 16 -11 16 C-11 14.02 -11 12.04 -11 10 C-7.37 10 -3.74 10 0 10 C0 6.7 0 3.4 0 0 Z " fill="#1E2021" transform="translate(21,11)"/>
</svg>
